<svg width="16" height="16" viewBox="0 0 16 16" fill="none" xmlns="http://www.w3.org/2000/svg">
<path d="M8.00016 1.33398C4.32418 1.33398 1.3335 4.32468 1.3335 8.00065C1.3335 11.6766 4.32418 14.6673 8.00016 14.6673C11.6761 14.6673 14.6668 11.6766 14.6668 8.00065C14.6668 4.32468 11.6761 1.33398 8.00016 1.33398ZM8.00016 2.33398C11.1357 2.33398 13.6668 4.86511 13.6668 8.00065C13.6668 11.1362 11.1357 13.6673 8.00016 13.6673C4.86462 13.6673 2.3335 11.1362 2.3335 8.00065C2.3335 4.86511 4.86462 2.33398 8.00016 2.33398ZM8.00016 4.00065C7.37516 4.00065 6.8431 4.25303 6.50146 4.63737C6.15983 5.02171 6.00016 5.51454 6.00016 6.00065C6.00016 6.48676 6.15983 6.97959 6.50146 7.36393C6.8431 7.74827 7.37516 8.00065 8.00016 8.00065C8.62516 8.00065 9.15722 7.74827 9.49886 7.36393C9.8405 6.97959 10.0002 6.48676 10.0002 6.00065C10.0002 5.51454 9.8405 5.02171 9.49886 4.63737C9.15722 4.25303 8.62516 4.00065 8.00016 4.00065ZM8.00016 5.00065C8.37516 5.00065 8.5931 5.12327 8.75146 5.30143C8.90983 5.47959 9.00016 5.73676 9.00016 6.00065C9.00016 6.26454 8.90983 6.52171 8.75146 6.69987C8.5931 6.87803 8.37516 7.00065 8.00016 7.00065C7.62516 7.00065 7.40722 6.87803 7.24886 6.69987C7.0905 6.52171 7.00016 6.26454 7.00016 6.00065C7.00016 5.73676 7.0905 5.47959 7.24886 5.30143C7.40722 5.12327 7.62516 5.00065 8.00016 5.00065ZM5.75342 8.66732C5.15958 8.66732 4.66683 9.15967 4.66683 9.75391V10.1146C4.66683 10.7772 5.08567 11.3531 5.68245 11.7337C6.27924 12.1143 7.07659 12.3346 8.00016 12.3346C8.92374 12.3346 9.72108 12.1143 10.3179 11.7337C10.9147 11.3531 11.3335 10.7772 11.3335 10.1146V9.75391C11.3335 9.16007 10.8411 8.66732 10.2469 8.66732H5.75342ZM5.75342 9.66732H10.2469C10.3007 9.66732 10.3335 9.70041 10.3335 9.75391V10.1146C10.3335 10.3519 10.1787 10.6364 9.78011 10.8906C9.38148 11.1449 8.76159 11.3346 8.00016 11.3346C7.23874 11.3346 6.61884 11.1449 6.22021 10.8906C5.82158 10.6364 5.66683 10.3519 5.66683 10.1146V9.75391C5.66683 9.70014 5.69992 9.66732 5.75342 9.66732Z" fill="#1A1A1A"/>
</svg>
